<svg xmlns="http://www.w3.org/2000/svg" version="1.1" xmlns:xlink="http://www.w3.org/1999/xlink" xmlns:svgjs="http://svgjs.dev/svgjs" width="1440" height="560" preserveAspectRatio="none" viewBox="0 0 1440 560"><g mask="url(&quot;#SvgjsMask1830&quot;)" fill="none"><rect width="1440" height="560" x="0" y="0" fill="url(&quot;#SvgjsLinearGradient1831&quot;)"></rect><path d="M1440 0L1374.39 0L1440 266.67z" fill="rgba(255, 255, 255, .1)"></path><path d="M1374.39 0L1440 266.67L1440 295.06L973.7900000000001 0z" fill="rgba(255, 255, 255, .075)"></path><path d="M973.79 0L1440 295.06L1440 355.11L400.9699999999999 0z" fill="rgba(255, 255, 255, .05)"></path><path d="M400.9699999999998 0L1440 355.11L1440 426.58000000000004L251.7299999999998 0z" fill="rgba(255, 255, 255, .025)"></path><path d="M0 560L523.05 560L0 438.18z" fill="rgba(0, 0, 0, .1)"></path><path d="M0 438.18L523.05 560L690.65 560L0 422.58z" fill="rgba(0, 0, 0, .075)"></path><path d="M0 422.58000000000004L690.65 560L1133.6799999999998 560L0 176.65000000000003z" fill="rgba(0, 0, 0, .05)"></path><path d="M0 176.64999999999998L1133.6799999999998 560L1297.0199999999998 560L0 171.68999999999997z" fill="rgba(0, 0, 0, .025)"></path></g><defs><mask id="SvgjsMask1830"><rect width="1440" height="560" fill="#ffffff"></rect></mask><linearGradient x1="15.28%" y1="139.29%" x2="84.72%" y2="-39.29%" gradientUnits="userSpaceOnUse" id="SvgjsLinearGradient1831"><stop stop-color="rgba(14, 42, 71, 1)" offset="0"></stop><stop stop-color="rgba(75, 98, 122, 1)" offset="0.53"></stop><stop stop-color="rgba(214, 21, 89, 1)" offset="1"></stop></linearGradient></defs></svg>